<?xml version="1.0" encoding="UTF-8"?>
<svg xmlns="http://www.w3.org/2000/svg" viewBox="0 0 100 100"
     width="100" height="100" role="img" aria-label="CHU Toulouse">
  <defs>
    <linearGradient id="chuShell" x1="0" y1="0" x2="1" y2="0.25">
      <stop offset="0%"  stop-color="#0091CE"/>
      <stop offset="50%" stop-color="#00A99D"/>
      <stop offset="100%" stop-color="#8BC53F"/>
    </linearGradient>
  </defs>
  <path d="M 50.00 90.00 L -22.38 74.61 A 80.00 80.00 0 0 1 -14.51 53.75 A 80.00 80.00 0 0 1 -0.78 36.17 A 80.00 80.00 0 0 1 17.56 23.49 A 80.00 80.00 0 0 1 38.85 16.84 A 80.00 80.00 0 0 1 61.15 16.84 A 80.00 80.00 0 0 1 82.44 23.49 A 80.00 80.00 0 0 1 100.78 36.17 A 80.00 80.00 0 0 1 114.51 53.75 A 80.00 80.00 0 0 1 122.38 74.61 Z" fill="url(#chuShell)"
        stroke="#006FA3" stroke-width="1.2"
        stroke-linejoin="round"/>
    <line x1="50.00" y1="90.00" x2="-11.90" y2="55.22" stroke="#FFFFFF" stroke-width="1.6" stroke-linecap="round" stroke-opacity="0.55"/>
    <line x1="50.00" y1="90.00" x2="1.28" y2="38.36" stroke="#FFFFFF" stroke-width="1.6" stroke-linecap="round" stroke-opacity="0.55"/>
    <line x1="50.00" y1="90.00" x2="18.88" y2="26.19" stroke="#FFFFFF" stroke-width="1.6" stroke-linecap="round" stroke-opacity="0.55"/>
    <line x1="50.00" y1="90.00" x2="39.30" y2="19.81" stroke="#FFFFFF" stroke-width="1.6" stroke-linecap="round" stroke-opacity="0.55"/>
    <line x1="50.00" y1="90.00" x2="60.70" y2="19.81" stroke="#FFFFFF" stroke-width="1.6" stroke-linecap="round" stroke-opacity="0.55"/>
    <line x1="50.00" y1="90.00" x2="81.12" y2="26.19" stroke="#FFFFFF" stroke-width="1.6" stroke-linecap="round" stroke-opacity="0.55"/>
    <line x1="50.00" y1="90.00" x2="98.72" y2="38.36" stroke="#FFFFFF" stroke-width="1.6" stroke-linecap="round" stroke-opacity="0.55"/>
    <line x1="50.00" y1="90.00" x2="111.90" y2="55.22" stroke="#FFFFFF" stroke-width="1.6" stroke-linecap="round" stroke-opacity="0.55"/>
  <circle cx="50.00" cy="90.00" r="7" fill="#006FA3"/>
</svg>
