<?xml version="1.0" encoding="UTF-8"?>
<svg xmlns="http://www.w3.org/2000/svg" xmlns:xlink="http://www.w3.org/1999/xlink" version="1.1" viewBox="0 0 113.3858 56.6924">
  <defs>
    <clipPath id="clippath">
      <rect x="14.1732" y="13.9447" width="85.0394" height="28.803" fill="none"/>
    </clipPath>
    <clipPath id="clippath-1">
      <path d="M30.9099,13.9534h-.0998c-2.4051,0-4.4481.4511-5.7119,1.1473-.289.1572-.4115.5042-.3492.8252l3.952,17.6774c.0623.2635.0141.4137-.1529.4549-.1963.0623-.3237-.0228-.4094-.2792l-5.4799-16.8771c-.097-.4001-.5433-.6382-.9179-.4717-3.2043,1.408-4.8417,3.6093-5.3432,5.0916-.0835.2494-.0049.5292.1572.7352l9.7989,12.6828c.1041.1404.0781.3074-.0114.3882-.0998.0878-.2776.1523-.4484-.0277l-10.07-11.066c-.2358-.2754-.6707-.2592-.8691.0369-.5135.7536-.7818,1.6509-.7818,2.5781,0,.8301.2218,1.6412.6409,2.3531.0092.0092.0136.0239.0184.0374.0043.0092.0092.0141.0157.0233.1735.2754.3421.5064.5178.6934,3.1978,4.3331,13.418,10.25,14.3657,10.7358.3633.1892.7585.2771,1.1516.2771h.0266c.3925,0,.7883-.0878,1.151-.2771.9483-.4858,11.1679-6.4026,14.3663-10.7358.1751-.1871.3443-.418.5178-.6934.0065-.0092.0114-.0141.0163-.0233.0043-.0136.0092-.0282.0184-.0374.4186-.7119.6398-1.523.6398-2.3531,0-.9271-.2678-1.8245-.7807-2.5781-.199-.296-.6338-.3123-.8697-.0369l-10.07,11.066c-.1708.18-.3486.1155-.4484.0277-.09-.0808-.1155-.2478-.0114-.3882l9.7989-12.6828c.1621-.206.2407-.4858.1572-.7352-.5015-1.4823-2.1384-3.6836-5.3438-5.0916-.3741-.1665-.8198.0716-.9179.4717l-5.4793,16.8771c-.0857.2565-.2131.3416-.4094.2792-.1664-.0412-.2152-.1914-.1523-.4549l3.9514-17.6774c.0623-.321-.0602-.668-.3497-.8252-1.2633-.6956-3.3057-1.1473-5.7108-1.1473h-.0737" fill="none"/>
    </clipPath>
    <radialGradient id="radial-gradient" cx="-363.0141" cy="327.6644" fx="-363.0141" fy="327.6644" r=".5422" gradientTransform="translate(-21690.591 -19596.2605) rotate(180) scale(59.8953 -59.8953)" gradientUnits="userSpaceOnUse">
      <stop offset="0" stop-color="#adce80"/>
      <stop offset=".4847" stop-color="#4eaf98"/>
      <stop offset=".5953" stop-color="#3c9aac"/>
      <stop offset=".8864" stop-color="#006471"/>
      <stop offset="1" stop-color="#004d6b"/>
    </radialGradient>
  </defs>
  <!-- Generator: Adobe Illustrator 28.7.1, SVG Export Plug-In . SVG Version: 1.2.0 Build 142)  -->
  <g>
    <g id="Capa_1">
      <g>
        <g clip-path="url(#clippath)">
          <path d="M59.7062,33.0353c4.2556,0,6.5539-2.731,6.5539-2.731l-2.0484-2.9126s-1.8657,2.0023-4.3239,2.0023c-3.0037,0-4.5966-2.48-4.5966-4.8927,0-2.3439,1.4791-4.6427,4.5966-4.6427,2.2528,0,4.074,1.6618,4.074,1.6618l1.8429-3.0042s-2.0706-2.2983-6.0985-2.2983c-4.8932,0-8.534,3.6408-8.534,8.3746,0,4.8244,3.4364,8.4429,8.534,8.4429" fill="#004d6b"/>
          <path d="M92.4305,33.0353c4.0962,0,6.7816-2.5943,6.7816-6.2579v-10.2863h-3.9823v10.2863c0,1.7605-1.1874,2.6735-2.9863,2.6139-1.4813-.0493-2.6572-1.2671-2.6572-2.7489v-8.3545c0-.9922-.8046-1.7968-1.7968-1.7968h-2.1861v10.2863c0,3.6635,2.6854,6.2579,6.8272,6.2579" fill="#004d6b"/>
          <polygon points="72.3812 27.215 78.3024 25.9832 78.3024 32.7621 82.2847 32.7621 82.2847 16.4912 78.3024 16.4912 78.3024 21.9157 72.3812 23.1476 72.3812 16.4912 68.3989 16.4912 68.3989 32.7621 72.3812 32.7621 72.3812 27.215" fill="#004d6b"/>
          <polygon points="51.5111 37.3434 53.5719 37.3434 53.5719 42.6416 54.7132 42.6416 54.7132 37.3434 56.7741 37.3434 56.7741 36.3615 51.5111 36.3615 51.5111 37.3434" fill="#004d6b"/>
          <path d="M60.5064,36.2554c-1.8488,0-3.2461,1.4064-3.2461,3.2021,0,1.8483,1.3972,3.29,3.2461,3.29s3.2461-1.4417,3.2461-3.29c0-1.7957-1.3978-3.2021-3.2461-3.2021M60.5064,41.7038c-1.15,0-2.0695-.9553-2.0695-2.2463,0-1.2389.9196-2.1584,2.0695-2.1584s2.0695.9196,2.0695,2.1584c0,1.2909-.9201,2.2463-2.0695,2.2463" fill="#004d6b"/>
          <path d="M68.8374,40.377c0,.8491-.5568,1.3267-1.3972,1.3267s-1.3885-.4777-1.3885-1.318v-4.0241h-1.1408v4.0241c0,1.4064,1.0166,2.3617,2.538,2.3617,1.5127,0,2.5298-.9553,2.5298-2.3617v-4.0241h-1.1413v4.0154Z" fill="#004d6b"/>
          <polygon points="72.7111 36.3616 71.5703 36.3616 71.5703 42.6411 75.4263 42.6411 75.4263 41.6598 72.7111 41.6598 72.7111 36.3616" fill="#004d6b"/>
          <path d="M79.2382,36.2554c-1.8483,0-3.2461,1.4064-3.2461,3.2021,0,1.8483,1.3978,3.29,3.2461,3.29s3.2461-1.4417,3.2461-3.29c0-1.7957-1.3972-3.2021-3.2461-3.2021M79.2382,41.7038c-1.1494,0-2.0695-.9553-2.0695-2.2463,0-1.2389.9201-2.1584,2.0695-2.1584s2.0695.9196,2.0695,2.1584c0,1.2909-.9201,2.2463-2.0695,2.2463" fill="#004d6b"/>
          <path d="M87.5692,40.377c0,.8491-.5568,1.3267-1.3972,1.3267s-1.3885-.4777-1.3885-1.318v-4.0241h-1.1408v4.0241c0,1.4064,1.0166,2.3617,2.538,2.3617,1.5127,0,2.5298-.9553,2.5298-2.3617v-4.0241h-1.1413v4.0154Z" fill="#004d6b"/>
          <path d="M91.1072,38.0597c0-.4424.4153-.752.9461-.752.7872,0,1.3885.5487,1.3885.5487l.4955-.9288s-.6371-.6723-1.8754-.6723c-1.2026,0-2.1048.7786-2.1048,1.8223,0,1.928,2.963,1.7334,2.963,2.8568,0,.5129-.4332.7607-.9109.7607-.8848,0-1.5658-.6636-1.5658-.6636l-.6186.8577s.7688.8583,2.1666.8583c1.3088,0,2.0701-.8404,2.0701-1.8396,0-2.0077-2.9543-1.7339-2.9543-2.8481" fill="#004d6b"/>
          <polygon points="96.431 41.6595 96.431 39.9701 98.545 39.9701 98.545 38.9887 96.431 38.9887 96.431 37.3432 99.0487 37.3432 99.0487 36.3613 95.2903 36.3613 95.2903 42.6414 99.1907 42.6414 99.1907 41.6595 96.431 41.6595" fill="#004d6b"/>
          <path d="M38.1613,39.5765l-4.4009,2.4306c-.3107.1719-.1887.6447.1664.6447h3.4803c.6983,0,1.2638-.5655,1.2638-1.2638v-1.5105c0-.2619-.2803-.4272-.5096-.3009" fill="#004d6b"/>
          <path d="M28.0611,42.0077l-4.4004-2.4301c-.0602-.0336-.1241-.0455-.1854-.0423-.1833-.0049-.3535.1388-.3535.3421v1.5105c0,.6983.566,1.2638,1.2638,1.2638h.0119c.006,0,.0114.0011.0174.0011h3.4797c.3562,0,.476-.4739.1665-.6452" fill="#004d6b"/>
        </g>
        <g clip-path="url(#clippath-1)">
          <rect x="9.436" y="6.2165" width="42.9207" height="42.4898" transform="translate(-10.4375 27.9322) rotate(-42.284)" fill="url(#radial-gradient)"/>
        </g>
      </g>
    </g>
  </g>
</svg>